<svg id="visual" viewBox="0 0 1911 700" width="1911" height="700" xmlns="http://www.w3.org/2000/svg" xmlns:xlink="http://www.w3.org/1999/xlink" version="1.1"><rect x="0" y="0" width="1911" height="700" fill="#161616"></rect><path d="M0 366L35.3 324.2C70.7 282.3 141.3 198.7 212.2 157.5C283 116.3 354 117.7 424.8 113C495.7 108.3 566.3 97.7 637 108.8C707.7 120 778.3 153 849.2 172.5C920 192 991 198 1061.8 227.2C1132.7 256.3 1203.3 308.7 1274 313.2C1344.7 317.7 1415.3 274.3 1486.2 226.5C1557 178.7 1628 126.3 1698.8 127C1769.7 127.7 1840.3 181.3 1875.7 208.2L1911 235L1911 0L1875.7 0C1840.3 0 1769.7 0 1698.8 0C1628 0 1557 0 1486.2 0C1415.3 0 1344.7 0 1274 0C1203.3 0 1132.7 0 1061.8 0C991 0 920 0 849.2 0C778.3 0 707.7 0 637 0C566.3 0 495.7 0 424.8 0C354 0 283 0 212.2 0C141.3 0 70.7 0 35.3 0L0 0Z" fill="#ff6421"></path><path d="M0 246L35.3 223.2C70.7 200.3 141.3 154.7 212.2 140.7C283 126.7 354 144.3 424.8 162C495.7 179.7 566.3 197.3 637 194.8C707.7 192.3 778.3 169.7 849.2 183C920 196.3 991 245.7 1061.8 236.5C1132.7 227.3 1203.3 159.7 1274 136C1344.7 112.3 1415.3 132.7 1486.2 136C1557 139.3 1628 125.7 1698.8 132C1769.7 138.3 1840.3 164.7 1875.7 177.8L1911 191L1911 0L1875.7 0C1840.3 0 1769.7 0 1698.8 0C1628 0 1557 0 1486.2 0C1415.3 0 1344.7 0 1274 0C1203.3 0 1132.7 0 1061.8 0C991 0 920 0 849.2 0C778.3 0 707.7 0 637 0C566.3 0 495.7 0 424.8 0C354 0 283 0 212.2 0C141.3 0 70.7 0 35.3 0L0 0Z" fill="#34b3f1"></path><path d="M0 107L35.3 100.8C70.7 94.7 141.3 82.3 212.2 86.8C283 91.3 354 112.7 424.8 111.3C495.7 110 566.3 86 637 71.3C707.7 56.7 778.3 51.3 849.2 64.8C920 78.3 991 110.7 1061.8 110.8C1132.7 111 1203.3 79 1274 80.2C1344.7 81.3 1415.3 115.7 1486.2 140.3C1557 165 1628 180 1698.8 171.7C1769.7 163.3 1840.3 131.7 1875.7 115.8L1911 100L1911 0L1875.7 0C1840.3 0 1769.7 0 1698.8 0C1628 0 1557 0 1486.2 0C1415.3 0 1344.7 0 1274 0C1203.3 0 1132.7 0 1061.8 0C991 0 920 0 849.2 0C778.3 0 707.7 0 637 0C566.3 0 495.7 0 424.8 0C354 0 283 0 212.2 0C141.3 0 70.7 0 35.3 0L0 0Z" fill="#ff6421"></path></svg>